<!--?xml version="1.0" encoding="utf-8"?-->
<!-- Svg Vector Icons : http://www.onlinewebfonts.com/icon -->

<svg version="1.1" xmlns="http://www.w3.org/2000/svg" xmlns:xlink="http://www.w3.org/1999/xlink" x="0px" y="0px" viewBox="0 0 256 256" enable-background="new 0 0 256 256" xml:space="preserve">
<metadata> Svg Vector Icons : http://www.onlinewebfonts.com/icon </metadata>
<g><g><g><path fill="#BDCDD6" data-title="Layer 0" xs="0" d="M117.2,10.1c-1,0.1-4.1,0.4-6.9,0.6c-15.8,1.6-30.9,5.5-43.1,11.4C52.7,29,43.6,37.6,40.6,47l-1.1,3.5l-4.6,2.4c-12.6,6.6-20.8,14.6-23.7,23.2c-1.1,3-1.1,3.7-1.1,14.9s0,12,1.1,14.9c3.1,9,12.1,17.6,25.2,24c2.8,1.3,5.2,2.5,5.2,2.5c0.1,0-0.3,1.4-0.9,3c-1,2.8-1.1,3.5-1.1,14.7c0,11.2,0,11.9,1.1,14.7c0.6,1.6,1.7,3.9,2.4,5.2l1.3,2.3l-1.3,2.3c-0.7,1.2-1.8,3.6-2.4,5.2c-1,2.8-1.1,3.5-1.1,14.7c0,11.2,0,12,1.1,14.9c5.2,15.1,25.9,27.8,54.5,33.6c12.1,2.4,18.3,3,32.8,3c14.5,0,20.7-0.6,32.8-3c28.6-5.7,49.4-18.5,54.5-33.6c1.1-3,1.1-3.7,1.1-14.9c0-11.2,0-11.9-1.1-14.7c-0.6-1.6-1.8-4-2.5-5.3c-1.4-2.3-1.4-2.4-0.6-3.7c1.7-2.9,3.4-6.5,3.7-8c0.3-1.3,0.8-1.8,4.3-3.5c12.7-6.4,21.6-15,24.6-23.7c1.1-3,1.1-3.7,1.1-14.9s0-12-1.1-14.9c-3.1-9-12.1-17.6-25.2-24c-2.8-1.3-5.2-2.5-5.2-2.5c-0.1,0,0.3-1.4,0.9-3c1-2.8,1.1-3.5,1.1-14.7c0-11.2,0-12-1.1-14.9c-4.8-13.9-22.8-25.9-48.1-32.1c-12.2-3-22.1-4.2-36.7-4.4C124.2,9.9,118.2,10,117.2,10.1z M140.3,17.7c27.3,2.1,50,10.3,61.8,22.4c7.3,7.4,8.9,14.2,5,22c-1.8,3.5-7.8,9.4-12.7,12.7c-24.7,16-68.5,21-104.5,11.8c-16-4.1-28.2-10.3-36-18.2c-9.5-9.6-9.5-18.7,0-28.3c7.9-8,19.9-14.1,36-18.2C105.2,17.9,123.7,16.4,140.3,17.7z M39.4,66.5c0.3,8.5,1,11.1,4.6,16.5c4.6,6.9,12.2,12.8,23.1,18c12.2,5.8,25.6,9.4,43.4,11.5c5.4,0.6,23.7,0.8,31.9,0.3l5.3-0.3l-3.9,1.4c-15.3,5.4-37.9,7.9-57.5,6.4c-27.3-2.1-50-10.3-61.8-22.4c-4-4.1-5.9-7.3-6.8-11.5c-1.8-8.3,4.8-17.6,17.9-25.3c1.8-1,3.4-1.8,3.5-1.8C39.1,59.2,39.3,62.5,39.4,66.5z M217,89c16.4,8.3,24.2,18.9,21,28.7c-2.4,7.8-10.6,15.1-23.3,21.2c-23.9,11.4-60.1,14.5-90.2,7.9c-5.8-1.3-15.1-4-14.9-4.2c0.1-0.1,3.1-0.5,6.6-0.8c28.7-3,52.9-12.9,63.7-26c2.9-3.5,5.4-8.2,6.2-11.3c0.6-2.2,0.6-2.2,5.3-4.7c6.5-3.4,10.9-6.4,15-10.3c1.9-1.8,3.8-3.3,4.1-3.4C210.9,86,213.8,87.4,217,89z M54.1,136.9c2.7,0.7,7.9,2,11.8,2.8c3.8,0.8,6.9,1.4,7,1.5c0.4,1.1,4.2,5.6,6.7,7.9c12.1,11.2,32.9,19.1,58.3,22.2c7.1,0.9,24.7,1.2,33.9,0.6c4.9-0.3,5.2-0.3,3.8,0.3c-2.4,1.1-11.1,3.5-17,4.7c-17.2,3.5-36.4,3.9-55.2,1.2c-32.7-4.8-58-20.8-56.7-36c0.2-2.5,1.5-6.5,2.1-6.5C49.1,135.4,51.4,136.1,54.1,136.9z M59.1,185.5c22.8,13.9,59.6,19.6,93.6,14.6c21-3.1,40.8-10.8,51.2-19.9c1.2-1.1,2.3-1.9,2.4-1.8s0.7,1.3,1.4,2.7c5.2,10.4-3.5,22.6-22.5,31.7c-31.7,15.1-82.4,15.1-114.3,0c-19-9-27.6-21.1-22.6-31.8l1.2-2.6l3.4,2.7C54.8,182.6,57.6,184.6,59.1,185.5z"/><path fill="#6096B4" data-title="Layer 1" xs="1" d="M121.1,27.1c0,2.8-0.3,3-3.1,3c-3.1,0-11.5,1.5-15.1,2.6c-4.5,1.5-8.6,4.1-10.4,6.7c-2.4,3.3-1.8,7.6,1.4,10.3c4.5,3.8,11.6,5.9,28.1,8.3c11.1,1.7,17.4,2.9,19.4,4c2.7,1.4,3,3.3,1.1,5.2c-2.1,1.9-5.3,2.8-11.8,3c-11.5,0.5-18.6-1.6-21.6-6.3l-0.7-1.1L97.8,64C92,64.7,87.2,65.3,87,65.4c-0.1,0.1,1,1.5,2.4,3c4.7,5.1,13,8.2,25.4,9.4l6,0.6l0.1,3.4l0.1,3.3h6.9h6.9v-3.4v-3.4l4.5-0.3c12.1-0.9,21.2-3.7,26-8c2.4-2.2,3.2-3.7,3.2-6.6c0-3.2-1.9-5.6-6.2-7.9c-4.4-2.4-9.8-3.7-24.7-6.2c-19.2-3.1-21.4-3.8-22-6.1c-0.3-1.4,0.2-2.3,2.1-3.6c2-1.4,5.3-2,10.8-2c7,0,12.3,1.7,15.9,5l1.5,1.4l9.2-1.5c5-0.9,9.4-1.7,9.6-1.9c0.6-0.6-4.2-4.4-7.5-6c-4.8-2.3-12.3-4-20.3-4.5l-1.8-0.1l-0.1-2.7l-0.1-2.6H128h-6.9V27.1z"/></g></g></g>
</svg>